PathFileType	4	(X/Y/Z)	/Users/niels/Desktop/University/Third Semester/Perception and Action/Exam/Gymnastics Motion Tracking/Code for Gym Tracking/Analyzed Data/Start Salto/stsalto_bad_id9_1_Sports2D/stsalto_bad_id9_1_Sports2D_px_person00.trc
DataRate	CameraRate	NumFrames	NumMarkers	Units	OrigDataRate	OrigDataStartFrame	OrigNumFrames
29.83050847457627	29.83050847457627	11	22	m	29.83050847457627	0	177
Frame#	Time	Hip			RHip			RKnee			RAnkle			RBigToe			RSmallToe			RHeel			LHip			LKnee			LAnkle			LBigToe			LSmallToe			LHeel			Neck			Head			Nose			RShoulder			RElbow			RWrist			LShoulder			LElbow			LWrist		
		X1	Y1	Z1	X2	Y2	Z2	X3	Y3	Z3	X4	Y4	Z4	X5	Y5	Z5	X6	Y6	Z6	X7	Y7	Z7	X8	Y8	Z8	X9	Y9	Z9	X10	Y10	Z10	X11	Y11	Z11	X12	Y12	Z12	X13	Y13	Z13	X14	Y14	Z14	X15	Y15	Z15	X16	Y16	Z16	X17	Y17	Z17	X18	Y18	Z18	X19	Y19	Z19	X20	Y20	Z20	X21	Y21	Z21	X22	Y22	Z22
0	0.0	0.0039742139589852505	-0.5498204004001784	0.0	0.003975164587535466	-0.5609228696360385	0.0	0.03265381312485458	-0.6756410615232982	0.0	0.07705330833148524	-0.8292032374898982	0.0	0.14270485707160507	-0.8477071591900242	0.0	0.11126776970321084	-0.8541774075728317	0.0	0.06134069912784416	-0.8578789997006608	0.0	0.0030646650843304314	-0.5609215614931014	0.0	0.03359421429018611	-0.6756342292979086	0.0	0.07798323186168338	-0.8292046710337537	0.0	0.14735232875726822	-0.8458581090266403	0.0	0.14180511393288134	-0.8421563443286663	0.0	0.06780647356798992	-0.8495557540500083	0.0	-0.006224407866689293	-0.3990290006203881	0.0	-0.005498494055712274	-0.2861397528571908	0.0	0.009012707203223481	-0.3977467786044379	0.0	0.00859652914409056	-0.4572566772041497	0.0	0.021715896504398036	-0.5133157670578088	0.0	0.008607404879392284	-0.5498154184655608	0.0	0.004898963958785957	-0.5284383415533473	0.0	0.011381075741524874	-0.6792059213342209	0.0	0.00863057793854893	-0.5516643459826375	0.0
1	0.033522727272727273	0.003989285771922786	-0.5498299543202596	0.0	0.003981998154537952	-0.5609322379983369	0.0	0.032665566710394923	-0.6756509338110264	0.0	0.07703237589397996	-0.8291966746900382	0.0	0.1426628503582623	-0.8477093567091714	0.0	0.11123831037870388	-0.854173445582661	0.0	0.061326717469343005	-0.8578656901407434	0.0	0.003094626941592171	-0.5609297479793879	0.0	0.03362167552074803	-0.6756436736538696	0.0	0.07798365503662417	-0.8292112493615432	0.0	0.1473354044434788	-0.8458667787255073	0.0	0.14179309329279446	-0.8421645584303009	0.0	0.06780547228256015	-0.8495602286990791	0.0	-0.006218192142009116	-0.3990144115695797	0.0	-0.005492093248099666	-0.28613748822830987	0.0	0.00902383559145414	-0.39771586277142484	0.0	0.008592849683297118	-0.4572223593855629	0.0	0.021708385987452946	-0.5133033747868201	0.0	0.008611396403591015	-0.5498153460621367	0.0	0.004916788537144978	-0.528362782603827	0.0	0.011406760257002872	-0.6791027229637845	0.0	0.008681007096197626	-0.5516676423262119	0.0
2	0.06704545454545455	0.004016004342364962	-0.5498355459073013	0.0	0.003993523244486827	-0.5609369884798742	0.0	0.032686254193760055	-0.6756560627739213	0.0	0.07699998143611676	-0.8291800058065311	0.0	0.14261502226566264	-0.8477074552032234	0.0	0.11120111668253198	-0.8541643970278602	0.0	0.06129695888489043	-0.8578394336170888	0.0	0.003137492443143676	-0.5609332629609334	0.0	0.033660172308829596	-0.6756525114487986	0.0	0.07798590875641045	-0.8292168879832857	0.0	0.14731771357134008	-0.8458755210923704	0.0	0.14178170519095745	-0.8421732813553391	0.0	0.06780534630934945	-0.8495634570281315	0.0	-0.006203299889367905	-0.39899227038697005	0.0	-0.00547501340156826	-0.2861323370604267	0.0	0.009048020223303007	-0.3976729378067893	0.0	0.008588613973799175	-0.45718282487007733	0.0	0.021696447615136893	-0.5132841466668033	0.0	0.008613620670546156	-0.5498071666092389	0.0	0.004948631468283287	-0.5282856902230896	0.0	0.011448499940732023	-0.6789965475500114	0.0	0.008750225290104505	-0.5516663061654858	0.0
3	0.10056818181818182	0.0040534726860073905	-0.5498278840059695	0.0	0.004008880225003213	-0.5609274472025589	0.0	0.03271506174840001	-0.6756463487050817	0.0	0.07696099467759424	-0.8291497505724298	0.0	0.14258435410926334	-0.8476968668155057	0.0	0.11116949775204549	-0.854148940858184	0.0	0.06124843236899584	-0.8577989755986088	0.0	0.0031835983093297586	-0.5609231638456866	0.0	0.03370023961404836	-0.6756541031851955	0.0	0.07799112381091373	-0.8292165646001467	0.0	0.14730972908641246	-0.845878725188502	0.0	0.1417792930436248	-0.8421775352914119	0.0	0.0678074230951712	-0.8495615560376515	0.0	-0.0061771230776078165	-0.3989663066085667	0.0	-0.005443227856115734	-0.2861235603124887	0.0	0.009088025335952436	-0.39762897827581534	0.0	0.008585799370894319	-0.45715649415372184	0.0	0.02168158621471472	-0.51326092704911	0.0	0.008610109951490691	-0.5497846944293777	0.0	0.0049936198383899845	-0.5282552733385264	0.0	0.011501850337891752	-0.6789525601782591	0.0	0.008819716029821094	-0.5516546212561859	0.0
4	0.1340909090909091	0.004092491468584464	-0.5497931239882212	0.0	0.004023482008007539	-0.5608895210521998	0.0	0.0327447103494971	-0.675607027262883	0.0	0.07693152132516198	-0.8291063586397118	0.0	0.1426153011497916	-0.8476721556350892	0.0	0.11117205073420333	-0.8541280651013489	0.0	0.061186159652054595	-0.8577505595974803	0.0	0.003207417511089754	-0.5608866860960005	0.0	0.03371792210512026	-0.6756371011404005	0.0	0.07800010387748264	-0.8292020098058024	0.0	0.1473304769749457	-0.8458664186773843	0.0	0.14180020154908196	-0.8421681827136465	0.0	0.06781347854390112	-0.8495484719698292	0.0	-0.006140719796010723	-0.39894805350607765	0.0	-0.005396594286206582	-0.2861117374806291	0.0	0.009140206412795854	-0.3976112459748693	0.0	0.008588267077560177	-0.4571793599084012	0.0	0.021669357777057963	-0.5132432152710623	0.0	0.008595001118544802	-0.549742287106795	0.0	0.005041046735051689	-0.5283578080063398	0.0	0.011548455729236915	-0.6790879731847982	0.0	0.008844445504569582	-0.5516255044532637	0.0
5	0.16761363636363635	0.004109762148031662	-0.549715439886778	0.0	0.0040267101271960854	-0.5608076231786508	0.0	0.032757017032332206	-0.6755216846356075	0.0	0.07694435870605494	-0.8290595058681819	0.0	0.14277528119986646	-0.847629384459361	0.0	0.11125571547648033	-0.8541077056516737	0.0	0.0611312907137707	-0.857714511949192	0.0	0.0031616788727816137	-0.5608101499547481	0.0	0.03366982015304732	-0.675586169307293	0.0	0.07801233490207117	-0.8291624933332639	0.0	0.1474072666897534	-0.845824582118434	0.0	0.14186393715846138	-0.8421319819087656	0.0	0.06782521414287415	-0.849516849408301	0.0	-0.006103337602227975	-0.39896041013979966	0.0	-0.005344473083632042	-0.2861002634011098	0.0	0.009187776094877264	-0.39766863881645886	0.0	0.008601918050656963	-0.4573064568682286	0.0	0.02167150053669856	-0.5132504230937386	0.0	0.008561671832802518	-0.5496793063355582	0.0	0.005063381067370474	-0.5287153938572403	0.0	0.011548258676853053	-0.6795694679244828	0.0	0.008744578080530667	-0.5515731911171817	0.0
6	0.20113636363636364	0.004063059972477541	-0.5495845503848771	0.0	0.004000275864920289	-0.5606727362921572	0.0	0.032719269352484356	-0.6753806398405258	0.0	0.0770513016750264	-0.829034893871335	0.0	0.1431432716296595	-0.8475708201523837	0.0	0.11148118501788724	-0.8541019045666078	0.0	0.061130221411436717	-0.8577319882429029	0.0	0.002977334689256451	-0.5606866001241754	0.0	0.03349379834315006	-0.6754863343076328	0.0	0.07802444666734754	-0.8290883372170147	0.0	0.14756962376055127	-0.8457385556587022	0.0	0.1419897604440798	-0.8420544041170678	0.0	0.06784303895778722	-0.8494609874553648	0.0	-0.006088018288863103	-0.39903884126521105	0.0	-0.005313126430755313	-0.2860971340108128	0.0	0.009193081651584785	-0.39787050625169307	0.0	0.008633737427047565	-0.45760297605056677	0.0	0.02170705652828212	-0.5133132866556824	0.0	0.008505989173318804	-0.54960765334024	0.0	0.005010330908686292	-0.52945710364994	0.0	0.011434812850592023	-0.6805746144522812	0.0	0.008408154980658139	-0.551498878613587	0.0
7	0.23465909090909093	0.00389191151797158	-0.5494103261387786	0.0	0.003919263665057114	-0.5604976516798521	0.0	0.03258493957960301	-0.67519684979747	0.0	0.07731631118087538	-0.829080246745674	0.0	0.1437746302229931	-0.8475122770522528	0.0	0.11190279808399549	-0.8541351624866707	0.0	0.06126017911221173	-0.8578677016498151	0.0	0.0025777161558531003	-0.5605299173339858	0.0	0.0331229481687141	-0.6753332883279991	0.0	0.07802835287066927	-0.8289787385073996	0.0	0.14783314321412278	-0.8456017102407428	0.0	0.14218374698196445	-0.8419272992349603	0.0	0.06786396382090264	-0.8493829195368775	0.0	-0.006136158890513027	-0.39922607070853666	0.0	-0.005352594760315306	-0.28611626486559033	0.0	0.009092535688582187	-0.39829041184745695	0.0	0.008688771016610745	-0.4581161007215738	0.0	0.02180031451387478	-0.5134698848937802	0.0	0.008432552179574159	-0.5495618269542768	0.0	0.00480933936763097	-0.5306445360217109	0.0	0.011121177157987808	-0.6821912945883621	0.0	0.007718580083099026	-0.5514198469267622	0.0
8	0.2681818181818182	0.003531163953832233	-0.5492450035848588	0.0	0.0037589902965895266	-0.560339630461023	0.0	0.032304444949736874	-0.675029642012882	0.0	0.07779101314449523	-0.8292654433347936	0.0	0.14463131327395323	-0.8474920510767018	0.0	0.11252398262871016	-0.8542413012212462	0.0	0.06162260120835846	-0.8582011341872806	0.0	0.0019178058990498284	-0.5603953840764754	0.0	0.032522532109305294	-0.6751513763116703	0.0	0.07800982810943789	-0.8288549185605287	0.0	0.14816948039720215	-0.8454312041545695	0.0	0.14241606087169084	-0.8417632964533799	0.0	0.06787872126291417	-0.8493020861391324	0.0	-0.0063065629847696685	-0.399554481447343	0.0	-0.005537812512340106	-0.28617681594974265	0.0	0.00880128770751072	-0.3989640441078789	0.0	0.008764068553268185	-0.4588185503083302	0.0	0.02197239734490697	-0.5137511947808288	0.0	0.00836410672620899	-0.5496085184635862	0.0	0.004381338955974786	-0.5321355725369709	0.0	0.010527590174758426	-0.6842326804513824	0.0	0.006624234602941209	-0.5513810409395691	0.0
9	0.30170454545454545	0.0029469148163376708	-0.549209305540738	0.0	0.0035114691245715303	-0.5603262328389458	0.0	0.0318532109405134	-0.6750118969396194	0.0	0.07846340778726313	-0.8296683565428057	0.0	0.14547388130754205	-0.8475778676156749	0.0	0.11322259609898203	-0.8544546157639402	0.0	0.062311270269043866	-0.8587955928411596	0.0	0.0010586861059470637	-0.5604024429152137	0.0	0.031758451552604934	-0.6750184410021636	0.0	0.07794907339254953	-0.8287775809832736	0.0	0.14846237506990942	-0.845290604616271	0.0	0.14258937344817246	-0.8416171073400633	0.0	0.06786889234110863	-0.8492673888919429	0.0	-0.00666176499056283	-0.4000102394405834	0.0	-0.005955039457494738	-0.2862981281104688	0.0	0.008238439109448709	-0.39981201307261804	0.0	0.008839237900646352	-0.4595204892349454	0.0	0.022222951934753533	-0.5141507413880394	0.0	0.008352491400683703	-0.549848812762822	0.0	0.003683171638125421	-0.5333874894290802	0.0	0.009643817782715896	-0.6859685848345451	0.0	0.005264645270214931	-0.5514650454595159	0.0
10	0.3352272727272727	0.002203124554723549	-0.549510952593669	0.0	0.0032143808727808213	-0.5606719388601256	0.0	0.031283307515128936	-0.6753678197667363	0.0	0.07917520736466611	-0.8303353242898395	0.0	0.1457315251344695	-0.847864476502216	0.0	0.11365214150635347	-0.8547881310150123	0.0	0.06334012581339714	-0.8596338214601379	0.0	0.0002785367132495573	-0.5607478906392935	0.0	0.031097327369636177	-0.6750910413738718	0.0	0.07782572916170309	-0.8288633960676095	0.0	0.14845858563962522	-0.845314353446889	0.0	0.14250647407442787	-0.8416096254779819	0.0	0.06780592817595975	-0.8493671344377585	0.0	-0.007232462570016272	-0.4004765936461678	0.0	-0.006661588348696627	-0.2864873384978289	0.0	0.007385542720434995	-0.40052804647558216	0.0	0.008864963483670815	-0.4597623800628857	0.0	0.022499831143825012	-0.5145755558646741	0.0	0.008486137595401814	-0.5504010397663996	0.0	0.0027868785475400385	-0.5332418506596183	0.0	0.008634743129227714	-0.6858298232622647	0.0	0.0041511839349648435	-0.5517916467038894	0.0
